<?xml version="1.0" encoding="UTF-8" standalone="no"?>
<!-- Created with Inkscape (http://www.inkscape.org/) -->

<svg
   xmlns:dc="http://purl.org/dc/elements/1.1/"
   xmlns:cc="http://creativecommons.org/ns#"
   xmlns:rdf="http://www.w3.org/1999/02/22-rdf-syntax-ns#"
   xmlns:svg="http://www.w3.org/2000/svg"
   xmlns="http://www.w3.org/2000/svg"
   xmlns:xlink="http://www.w3.org/1999/xlink"
   xmlns:sodipodi="http://sodipodi.sourceforge.net/DTD/sodipodi-0.dtd"
   xmlns:inkscape="http://www.inkscape.org/namespaces/inkscape"
   id="svg2"
   version="1.1"
   inkscape:version="0.48.1 r9760"
   width="500"
   height="450"
   sodipodi:docname="istockphoto_1444155-loaded-taco.jpg">
  <metadata
     id="metadata8">
    <rdf:RDF>
      <cc:Work
         rdf:about="">
        <dc:format>image/svg+xml</dc:format>
        <dc:type
           rdf:resource="http://purl.org/dc/dcmitype/StillImage" />
        <dc:title></dc:title>
      </cc:Work>
    </rdf:RDF>
  </metadata>
  <defs
     id="defs6">
    <linearGradient
       inkscape:collect="always"
       id="linearGradient4019">
      <stop
         style="stop-color:#d7f4e3;stop-opacity:1;"
         offset="0"
         id="stop4021" />
      <stop
         style="stop-color:#d7f4e3;stop-opacity:0;"
         offset="1"
         id="stop4023" />
    </linearGradient>
    <linearGradient
       id="linearGradient3906"
       inkscape:collect="always">
      <stop
         id="stop3908"
         offset="0"
         style="stop-color:#aa8800;stop-opacity:1" />
      <stop
         id="stop3910"
         offset="1"
         style="stop-color:#eeb534;stop-opacity:0;" />
    </linearGradient>
    <linearGradient
       inkscape:collect="always"
       id="linearGradient3027">
      <stop
         style="stop-color:#e3b200;stop-opacity:1;"
         offset="0"
         id="stop3029" />
      <stop
         style="stop-color:#aa8800;stop-opacity:1"
         offset="1"
         id="stop3031" />
    </linearGradient>
    <linearGradient
       inkscape:collect="always"
       id="linearGradient3019">
      <stop
         style="stop-color:#eeb534;stop-opacity:1;"
         offset="0"
         id="stop3021" />
      <stop
         style="stop-color:#eeb534;stop-opacity:0;"
         offset="1"
         id="stop3023" />
    </linearGradient>
    <filter
       inkscape:collect="always"
       id="filter4220"
       color-interpolation-filters="sRGB">
      <feGaussianBlur
         inkscape:collect="always"
         stdDeviation="5.0986692"
         id="feGaussianBlur4222" />
    </filter>
    <linearGradient
       inkscape:collect="always"
       xlink:href="#linearGradient3027"
       id="linearGradient4279"
       gradientUnits="userSpaceOnUse"
       x1="106.50572"
       y1="43.295605"
       x2="9.3490973"
       y2="545.54291" />
    <linearGradient
       inkscape:collect="always"
       xlink:href="#linearGradient4019"
       id="linearGradient4281"
       gradientUnits="userSpaceOnUse"
       x1="44.947361"
       y1="175.41356"
       x2="107.91629"
       y2="163.91847" />
    <linearGradient
       inkscape:collect="always"
       xlink:href="#linearGradient4019"
       id="linearGradient4283"
       gradientUnits="userSpaceOnUse"
       x1="44.947361"
       y1="175.41356"
       x2="107.91629"
       y2="163.91847" />
    <linearGradient
       inkscape:collect="always"
       xlink:href="#linearGradient3906"
       id="linearGradient4285"
       gradientUnits="userSpaceOnUse"
       x1="435.33972"
       y1="-40.047878"
       x2="-168.6705"
       y2="479.07547" />
    <linearGradient
       inkscape:collect="always"
       xlink:href="#linearGradient3019"
       id="linearGradient4287"
       gradientUnits="userSpaceOnUse"
       x1="272.66879"
       y1="30.417656"
       x2="103.96752"
       y2="285.07828" />
    <linearGradient
       inkscape:collect="always"
       xlink:href="#linearGradient4019"
       id="linearGradient4289"
       gradientUnits="userSpaceOnUse"
       x1="44.947361"
       y1="175.41356"
       x2="107.91629"
       y2="163.91847" />
  </defs>
  <sodipodi:namedview
     pagecolor="#ffffff"
     bordercolor="#666666"
     borderopacity="1"
     objecttolerance="10"
     gridtolerance="10"
     guidetolerance="10"
     inkscape:pageopacity="0"
     inkscape:pageshadow="2"
     inkscape:window-width="1280"
     inkscape:window-height="969"
     id="namedview4"
     showgrid="false"
     inkscape:zoom="0.56545845"
     inkscape:cx="-6.8551689"
     inkscape:cy="257.72139"
     inkscape:window-x="0"
     inkscape:window-y="26"
     inkscape:window-maximized="1"
     inkscape:current-layer="svg2" />
  <g
     id="g4224"
     transform="matrix(1.2074561,0,0,1.2074561,24.065539,22.51576)">
    <path
       inkscape:connector-curvature="0"
       id="path4086"
       d="m 232.76491,9.5847454 c -10.70375,-0.047666 -21.26701,1.2659486 -31.3125,4.2499996 -1.38165,0.410423 -2.75756,0.851231 -4.125,1.3125 -5.57742,0.986145 -11.00398,2.47091 -16.25,4.71875 -1.74397,0.50543 -3.58714,1.06648 -5.4375,1.625 l -4.65625,-4.03125 -5.15625,7.125 c -14.01669,4.558729 -30.03322,10.496591 -46.28125,18.125 -5.99682,-1.98616 -14.08739,-2.313594 -17.65625,1.0625 -2.70121,2.555314 -1.6887,5.15755 -0.6875,8.28125 -18.31268,10.135845 -36.03343,22.573291 -50.46875,37.75 -3.68158,4.166592 -7.14361,8.495852 -10.40625,12.968755 l -1.625,-0.21875 0.46875,1.84375 c -3.15239,4.42495 -6.08141,8.97097 -8.8125,13.65625 -1.23624,0.62781 -2.05017,1.28315 -2.25,2 -0.13378,0.47992 -0.02366,0.98388 0.25,1.53125 -8.48337,15.34156 -14.74156,31.91765 -18.4374996,49.21875 -3.07788,14.40789 -3.82057,42.87299 -1.53125,58.4375 1.9833796,13.48444 6.9895096,33.38118 12.0937496,48.0625 9.60161,27.61714 22.72843,44.49237 37.21875,47.90625 3.85627,0.90853 4.86617,1.15248 7.65625,0.5625 -0.0821,0.0477 -0.16767,0.0767 -0.25,0.125 1.81924,-0.30584 4.02229,-0.92047 6.40625,-1.71875 1.09751,-0.32369 2.15832,-0.68894 3.28125,-1.15625 0.17504,-0.0661 0.35533,-0.15128 0.53125,-0.21875 0.17627,-0.0771 0.3495,-0.13544 0.53125,-0.21875 7.71552,-3.00262 16.09454,-7.15261 19.625,-9.46875 58.43369,-38.33512 116.82016,-72.67896 176.8125,-108.625 41.57322,-24.17153 70.44846,-41.40943 75.9375,-45.4375 1.55729,-1.1428 2.9338,-2.28378 4.25,-3.40625 3.7419,-2.33155 7.49011,-4.63683 11.25,-7 8.30662,-5.2209 6.60308,-18.94525 6.25,-28.75 -0.53163,-14.76307 -4.49632,-30.114666 -12.5,-42.531255 -11.70911,-18.16504 -28.1918,-34.299388 -47.09375,-45.25 -5.73402,-3.681231 -11.73017,-6.89243 -17.90625,-9.53125 C 274.08654,14.724319 253.19935,9.6757444 232.76491,9.5847454 z"
       style="opacity:0.5;fill:#000000;fill-opacity:1;filter:url(#filter4220)" />
    <path
       sodipodi:nodetypes="ssssccsssssssssssss"
       inkscape:connector-curvature="0"
       id="path2998"
       d="m 58.343415,324.32404 c -14.49032,-3.41388 -27.59638,-20.29481 -37.19799,-47.91195 -5.10424,-14.68132 -10.11178,-34.58101 -12.09516,-48.06545 -2.28932,-15.56451 -1.5405,-44.02666 1.53738,-58.43455 6.42772,-30.08887 20.49205,-58.00154 40.8134,-81.000007 36.87219,-38.765921 95.039685,-59.687691 130.331145,-69.915709 16.47162,-7.057845 34.62045,-6.635638 54.1726,-6.650805 16.56118,-0.01285 29.3157,1.941227 43.70416,6.695752 11.69051,3.863015 29.67309,12.1213 34.63427,15.905378 1.77776,1.355961 3.51431,2.465384 3.859,2.465384 1.411,0 10.52045,7.582891 18.35032,15.275188 13.47183,13.235123 22.98794,29.272174 28.87005,48.653359 2.11289,6.96182 2.61877,10.73103 2.69388,20.07145 0.0851,10.5862 -0.1282,11.97122 -2.68466,17.43013 -3.72748,7.95941 -8.31519,13.34715 -16.44582,19.31371 -7.48639,5.4938 -58.20913,35.43352 -125.77704,74.24144 -59.24125,34.02547 -86.5351,50.49081 -114.5,69.07349 -28.960915,19.24453 -31.046835,20.45884 -38.460105,22.38924 -6.59908,1.71839 -6.49781,1.71441 -11.80543,0.46395 z"
       style="fill:#f1ca00;fill-opacity:1" />
    <path
       d="m 235.90625,17.34375 c -19.62547,0.01522 -37.03348,-0.256665 -52.21875,6.25 a 4.991609,4.991609 0 0 1 -0.59375,0.1875 c -34.91267,10.118239 -92.244737,31.000963 -127.9375,68.4375 -0.04051,0.04249 -0.08454,0.08247 -0.125,0.125 -19.688249,22.32783 -33.326073,49.40034 -39.5625,78.59375 -2.831573,13.2549 -3.607963,42.14353 -1.46875,56.6875 1.910286,12.9875 6.897675,32.83997 11.875,47.15625 9.346451,26.88323 22.054792,41.96159 33.625,44.6875 5.338042,1.25763 2.809866,1.28019 9.40625,-0.4375 3.565476,-0.92844 5.063181,-1.37917 9.875,-4.1875 4.811819,-2.80833 12.586681,-7.91207 27.0625,-17.53125 28.08056,-18.65953 55.48026,-35.17691 114.75,-69.21875 33.7709,-19.39646 63.3374,-36.58427 85.375,-49.59375 22.0376,-13.00948 37.07299,-22.24998 39.96875,-24.375 7.70107,-5.65133 11.45114,-10.09517 14.875,-17.40625 1.23202,-2.63078 1.66483,-3.66926 1.9375,-5.4375 0.27267,-1.76824 0.32351,-4.58637 0.28125,-9.84375 -0.0737,-9.16214 -0.4647,-11.95008 -2.5,-18.65625 C 354.86157,84.100003 345.80987,68.8962 332.9375,56.25 329.127,52.506449 324.95825,48.751424 321.65625,46 c -1.651,-1.375712 -3.09831,-2.513679 -4.09375,-3.21875 -0.38982,-0.276112 -0.62174,-0.414959 -0.8125,-0.53125 0.20558,0.06987 0.47518,0.15625 1.34375,0.15625 -1.06604,0 -1.26717,-0.178037 -1.5625,-0.3125 -0.0886,-0.04034 -0.38895,-0.06215 -0.46875,-0.09375 -0.34582,-0.136943 -0.5588,-0.2575 -0.78125,-0.375 -0.44491,-0.234999 -0.85634,-0.47654 -1.28125,-0.75 -0.84981,-0.54692 -1.79823,-1.218969 -2.78125,-1.96875 -1.55791,-1.188279 -7.40389,-4.388578 -13.84375,-7.34375 -6.43986,-2.955172 -13.77988,-5.942722 -19.34375,-7.78125 -13.94042,-4.606474 -25.95675,-6.450045 -42.125,-6.4375 z"
       id="path3002"
       style="fill:url(#linearGradient4279);fill-opacity:1"
       inkscape:original="M 235.90625 12.34375 C 216.3541 12.358917 198.19037 11.942155 181.71875 19 C 146.42729 29.228018 88.27844 50.140329 51.40625 88.90625 C 31.0849 111.90472 17.02147 139.81738 10.59375 169.90625 C 7.51587 184.31414 6.77318 212.77924 9.0625 228.34375 C 11.04588 241.82819 16.05201 261.72493 21.15625 276.40625 C 30.75786 304.02339 43.85343 320.89862 58.34375 324.3125 C 63.65137 325.56296 63.55717 325.59339 70.15625 323.875 C 77.56952 321.9446 79.632835 320.71328 108.59375 301.46875 C 136.55865 282.88607 163.8525 266.43172 223.09375 232.40625 C 290.66166 193.59833 341.38861 163.65005 348.875 158.15625 C 357.00563 152.18969 361.61627 146.80316 365.34375 138.84375 C 367.90021 133.38484 368.11635 131.99245 368.03125 121.40625 C 367.95614 112.06583 367.42539 108.30557 365.3125 101.34375 C 359.43039 81.962565 349.90933 65.922623 336.4375 52.6875 C 328.60763 44.995203 319.50475 37.40625 318.09375 37.40625 C 317.74906 37.40625 316.02776 36.293461 314.25 34.9375 C 309.28882 31.153422 291.28426 22.894265 279.59375 19.03125 C 265.20529 14.276725 252.46743 12.3309 235.90625 12.34375 z "
       inkscape:radius="-4.9911098"
       sodipodi:type="inkscape:offset" />
    <path
       style="fill:#73cb2b;fill-opacity:1;stroke:none"
       d="m 39.361823,101.65898 14.267572,1.90628 8.76982,-2.88355 2.158342,9.27574 7.386745,1.31574 c 0,0 -1.265685,21.36769 1.567808,16.15657 2.833493,-5.21113 12.834439,-7.87538 12.834439,-7.87538 l 1.365792,6.5942 -15.229348,10.62425 c 0,0 -17.6916,10.18568 -17.101065,3.30485 0.590533,-6.88083 3.356693,-15.27941 3.356693,-15.27941 l -4.199293,-1.38307 -3.170168,-10.72616 -9.056453,0.92722 z"
       id="path3997"
       inkscape:connector-curvature="0" />
    <path
       sodipodi:nodetypes="zzzzzzzzczzzzzzzzzzzz"
       inkscape:connector-curvature="0"
       id="path3977"
       d="m 25.010035,250.46488 c 9.595986,7.17088 31.104134,-3.20684 33.763547,-11.25452 2.659413,-8.04768 -9.25822,-6.74081 -8.753512,-12.50502 0.504708,-5.76421 11.398171,-8.06437 13.755519,-13.75551 2.357348,-5.69114 -3.46561,-12.58931 0,-17.50703 3.46561,-4.91772 11.253068,-3.96328 17.507024,-6.25251 6.253956,-2.28923 9.54945,3.47424 20.008027,-7.50301 10.45858,-10.97725 5.93307,-42.85343 21.25853,-66.27659 15.32546,-23.423164 73.7796,-65.026091 73.7796,-65.026091 0,0 -53.19227,15.546358 -65.02609,8.753512 -11.83382,-6.792846 -0.97348,-11.271027 -6.25251,-15.006021 -5.27903,-3.734994 -17.81126,-5.694525 -22.50903,-1.250502 -4.697766,4.444023 1.85756,9.02465 0,16.256523 -1.85756,7.231873 -6.182168,16.397451 -13.755516,25.010035 -7.573348,8.612584 -22.330279,18.067734 -32.513045,23.759534 -10.182766,5.69179 -26.503025,7.63848 -27.511039,11.25451 -1.008014,3.61603 11.344732,8.96706 10.004014,18.75753 -1.340718,9.79047 -30.1919478,23.79387 -26.260537,27.51104 3.931411,3.71717 25.486458,-3.95267 31.262544,7.50301 5.776086,11.45568 -14.58521,28.0673 -17.507024,41.26656 -2.921814,13.19926 -10.846488,29.09367 -1.250502,36.26455 z"
       style="fill:#549c1c;fill-opacity:1;stroke:none" />
    <path
       style="fill:#73cb2b;fill-opacity:1;stroke:none"
       d="m 67.654437,228.05586 -4.032964,-13.81784 1.530099,-9.10403 -9.494978,-0.73699 -2.413042,-7.10439 c 0,0 -20.933458,4.46882 -16.208424,0.88294 4.725034,-3.58588 5.85296,-13.87398 5.85296,-13.87398 l -6.724677,-0.35726 -8.209862,16.65551 c 0,0 -7.405515,19.02364 -0.69207,17.40372 6.713447,-1.61992 14.599732,-5.61921 14.599732,-5.61921 l 1.99964,3.94315 11.081221,1.51887 0.447082,9.09281 z"
       id="path3989"
       inkscape:connector-curvature="0" />
    <path
       style="fill:#456f00;fill-opacity:1;stroke:none"
       d="m 69.365389,221.21514 6.800158,-12.68681 7.46886,-5.42593 -6.26048,-7.17664 3.25396,-6.76068 c 0,0 -18.070615,-11.47314 -12.18661,-10.72284 5.884007,0.75031 13.8952,-5.80241 13.8952,-5.80241 l -4.54926,-4.9652 -17.525635,6.13676 c 0,0 -18.610294,8.39033 -12.684164,11.93652 5.92613,3.5462 14.355934,6.21571 14.355934,6.21571 l -1.33476,4.2149 6.84494,8.84574 -6.04986,6.80281 z"
       id="path3991"
       inkscape:connector-curvature="0" />
    <path
       inkscape:connector-curvature="0"
       id="path3993"
       d="m 60.892458,216.88401 -12.843841,6.4987 -9.230233,0.1655 1.016856,9.46909 -6.541345,3.67503 c 0,0 8.232133,19.75885 3.840519,15.7716 -4.39161,-3.98726 -14.712078,-3.20926 -14.712078,-3.20926 l 0.882085,6.67615 17.878671,5.01606 c 0,0 20.05913,3.79104 17.235462,-2.51145 -2.823662,-6.3025 -8.201435,-13.32158 -8.201435,-13.32158 l 3.509542,-2.68888 -0.539147,-11.17182 8.856592,-2.10709 z"
       style="fill:#456f00;fill-opacity:1;stroke:none" />
    <path
       sodipodi:nodetypes="aaaaaaaaaaaaaaaaaaaaaaaa"
       inkscape:connector-curvature="0"
       id="path3914"
       d="m 42.256764,298.63956 c -0.74047,7.47801 5.28785,16.66434 12.50502,18.75753 3.94285,1.14354 7.78373,-2.80941 11.25451,-5.00201 3.249,-2.0525 5.1492,-6.16969 8.75351,-7.50301 2.7366,-1.01233 6.37015,1.68326 8.75352,0 11.1997,-7.90979 6.79313,-26.95357 13.75552,-38.76556 14.694956,-24.93061 42.951486,-40.02316 57.523076,-65.02609 7.10209,-12.18625 21.04206,-27.93919 13.75551,-40.01605 -12.63904,-20.94816 -52.76194,-25.67083 -72.529096,-11.25452 -6.47814,4.72455 -2.46717,15.8451 -3.7515,23.75953 -0.40614,2.50276 0.68414,5.86413 -1.2505,7.50301 -5.08884,4.3109 -14.12784,-3.14698 -20.00803,0 -2.65017,1.41833 -4.13097,4.62615 -5.00201,7.50301 -1.08713,3.59054 1.43564,7.78858 0,11.25452 -2.25589,5.4462 -10.59191,6.92917 -12.50502,12.50502 -1.09064,3.17872 2.34115,6.82529 1.25051,10.00401 -1.14787,3.34551 -6.93645,4.01173 -7.50301,7.50301 -0.59721,3.68014 5.29363,6.28717 5.002,10.00402 -0.28048,3.57475 -3.4838,6.47496 -6.25251,8.75351 -3.889,3.20051 -12.74941,1.3174 -13.75552,6.25251 -1.35547,6.6488 11.2956,8.68204 13.75552,15.00602 1.05778,2.71935 -1.41448,6.20145 0,8.75351 1.90631,3.43945 9.55904,2.34536 10.00402,6.25251 0.73376,6.44277 -13.11656,7.30266 -13.75552,13.75552 z"
       style="fill:#5a3c08;fill-opacity:1;stroke:none" />
    <path
       sodipodi:nodetypes="aaaaaaaaaaa"
       inkscape:connector-curvature="0"
       id="path3943"
       d="m 60.128202,271.52451 c -0.767405,1.93774 -0.768945,4.92052 0.884238,6.18967 2.943408,2.25966 8.292061,1.15297 11.052979,-1.32636 1.462915,-1.31371 0.323101,-4.05657 1.326357,-5.74755 0.905494,-1.52621 3.543998,-1.8165 3.979072,-3.53695 0.422902,-1.67231 -0.228989,-4.0852 -1.768476,-4.86331 -2.330669,-1.178 -4.930243,2.57589 -7.516026,2.2106 -1.902619,-0.26878 -2.94289,-3.03011 -4.86331,-3.09484 -1.845532,-0.0622 -4.796858,0.80734 -4.863311,2.65272 -0.08827,2.45119 6.062912,1.52957 6.189668,3.97907 0.09753,1.88477 -3.726276,1.78225 -4.421191,3.53695 z"
       style="fill:#2b1100;stroke:none" />
    <path
       sodipodi:nodetypes="aaaaaaaaaaa"
       inkscape:connector-curvature="0"
       id="path3945"
       d="m 49.893815,311.99398 c -0.461436,5.05427 9.336121,4.44521 14.380771,5.00201 5.421868,0.59844 11.72175,1.15584 16.256522,-1.87576 1.783868,-1.19256 1.704035,-4.02049 3.126255,-5.62725 1.878885,-2.12268 6.528186,-2.18887 6.877759,-5.00201 0.401465,-3.23073 -3.081861,-6.76425 -6.252509,-7.50301 -3.998241,-0.93159 -7.291883,3.929 -11.254515,5.00201 -3.643382,0.98656 -8.880389,-1.68396 -11.254516,1.2505 -1.317431,1.62837 1.801725,4.51956 0.625251,6.25251 -0.852235,1.25534 -2.894545,0.92609 -4.376756,1.2505 -2.677905,0.58612 -7.879028,-1.47944 -8.128262,1.2505 z"
       style="fill:#2b1100;fill-opacity:1;stroke:none" />
    <path
       sodipodi:nodetypes="aaaaaaaaaaaaaa"
       inkscape:connector-curvature="0"
       id="path3947"
       d="m 70.739061,237.03922 c -4.287605,0.65187 -9.340127,0.37568 -12.821455,-2.2106 -1.05811,-0.78607 -2.18531,-2.28645 -1.768476,-3.53695 0.416834,-1.2505 2.407692,-1.08856 3.536953,-1.76847 1.08609,-0.65391 1.845567,-1.9949 3.094834,-2.2106 2.114497,-0.36509 4.476584,3.06066 6.189668,1.76848 1.411861,-1.06497 0.834469,-3.74621 0,-5.30543 -0.752181,-1.40546 -3.666449,-1.08959 -3.979073,-2.65272 -0.208416,-1.04208 0.880322,-2.06914 1.768477,-2.65271 1.377027,-0.90479 3.856887,0.42035 4.86331,-0.88424 1.173681,-1.52141 -1.648077,-4.2516 -0.442119,-5.74755 2.707685,-3.35879 9.096632,-3.94534 12.821455,-1.76848 5.198086,3.03786 8.759308,11.16827 6.631787,16.80053 -2.631819,6.96731 -12.532166,9.04927 -19.895361,10.16874 z"
       style="fill:#2b1100;fill-opacity:1;stroke:none" />
    <path
       sodipodi:nodetypes="aaaaaaaaaaaaaaaaaaaaaaaaaaaaaaaaaaaaaaaaaaaaaaaaaaa"
       inkscape:connector-curvature="0"
       id="path3934"
       d="m 80.70721,185.75427 c -5.2392,3.0901 -2.93336,12.37526 -7.09375,16.8125 -1.80027,1.92007 -5.80369,1.21975 -7.0625,3.53125 -1.27307,2.33769 -1.20177,6.27241 0.875,7.9375 2.08485,1.67157 5.31159,-1.15824 7.96875,-0.875 3.7013,0.39453 7.06969,4.72968 10.59375,3.53125 2.01042,-0.68368 2.38099,-3.51681 3.5625,-5.28125 2.3662,-3.53364 3.92833,-7.75055 7.0625,-10.625 2.72093,-2.49545 7.83555,-2.13692 9.71875,-5.3125 1.05203,-1.77402 1.30923,-4.59382 0,-6.1875 -1.90755,-2.32201 -5.87266,-1.29928 -8.84375,-1.75 -5.56154,-0.84369 -11.93604,-4.63897 -16.78125,-1.78125 z m 6.1875,36.25 c -3.69637,1.07389 -6.54901,4.04973 -9.75,6.1875 -2.98482,1.9934 -5.26193,5.66189 -8.8125,6.1875 -1.84434,0.27303 -3.63078,-2.55495 -5.3125,-1.75 -2.26868,1.0859 -1.29355,4.94847 -2.65625,7.0625 -2.03525,3.15739 -8.24166,4.22217 -7.96875,7.96875 0.21417,2.94014 4.14962,5.13152 7.09375,5.28125 3.42912,0.1744 5.6743,-6.60182 8.84375,-5.28125 1.1194,0.4664 0.92366,2.31955 0.875,3.53125 -0.18689,4.65403 -7.31125,9.58443 -4.4375,13.25 2.19253,2.79665 7.47801,0.77574 10.625,-0.875 3.70992,-1.94603 5.88497,-6.08441 7.96875,-9.71875 1.25409,-2.18727 1.32027,-4.93631 2.625,-7.09375 2.05344,-3.39548 5.10837,-6.09346 7.96875,-8.84375 3.32164,-3.19379 9.68819,-4.33199 10.625,-8.84375 0.53605,-2.58165 -1.31713,-5.68026 -3.5625,-7.0625 -4.00951,-2.46824 -9.60362,-1.31358 -14.125,0 z m 12.375,36.25 c -8.29108,-2.1749 -5.02208,17.38674 -11.5,23 -2.82054,2.44407 -7.0494,2.46167 -10.625,3.53125 -4.3791,1.30994 -8.89413,4.91647 -13.25,3.53125 -6.57614,-2.09128 -11.76398,-9.1675 -13.25,-15.90625 -0.9843,-4.46359 6.62761,-9.88771 3.53125,-13.25 -2.22985,-2.42135 -8.17718,-1.15839 -9.71875,1.75 -2.71684,5.12572 6.78383,10.11172 7.0625,15.90625 0.1345,2.7967 -3.29954,5.24372 -2.65625,7.96875 0.76492,3.24023 4.95246,4.48724 7.0625,7.0625 3.37092,4.11414 4.46956,10.25541 8.84375,13.28125 3.23556,2.2382 7.85174,4.12887 11.5,2.65625 6.52122,-2.6323 7.47032,-11.92408 11.5,-17.6875 3.38077,-4.83533 8.62053,-8.60719 10.625,-14.15625 2.00551,-5.55192 6.58486,-16.1897 0.875,-17.6875 z m -12.375,0.90625 c -4.55311,-1.51905 -7.06115,6.50359 -10.625,9.71875 -2.62959,2.3723 -8.18046,3.5293 -7.9375,7.0625 0.21841,3.17625 4.99664,6.53219 7.9375,5.3125 1.39263,-0.57757 -0.14613,-3.32832 0.875,-4.4375 2.91218,-3.16329 10.14493,0.12575 12.40625,-3.53125 2.51965,-4.07477 1.88836,-12.60879 -2.65625,-14.125 z"
       style="fill:#a05e00;fill-opacity:1;stroke:none" />
    <path
       style="fill:#deaa87;fill-opacity:1;stroke:none"
       d="m 79.139325,201.22757 c -1.905827,-0.24499 -4.653641,1.18479 -4.863311,3.09483 -0.204678,1.86455 4.191328,2.11537 3.979072,3.97908 -0.157325,1.38138 -3.701214,0.83001 -3.536953,2.21059 0.275303,2.31385 4.427739,2.96683 6.631787,2.2106 2.010401,-0.68978 3.707205,-3.18682 3.536953,-5.30543 -0.225531,-2.80651 -2.954967,-5.83069 -5.747548,-6.18967 z"
       id="path3975"
       inkscape:connector-curvature="0"
       sodipodi:nodetypes="aaaaaaa" />
    <path
       sodipodi:nodetypes="aaaaaaaa"
       inkscape:connector-curvature="0"
       id="path3971"
       d="m 79.160252,289.6514 c 0.04088,-2.53517 1.960456,-5.57848 4.421192,-6.18967 2.238731,-0.55605 5.274734,0.97728 6.189668,3.09483 0.610267,1.41242 -0.604155,3.0626 -1.326358,4.42119 -0.983156,1.84949 -2.483429,3.39694 -3.979072,4.86332 -1.873619,1.83696 -4.156402,6.52183 -6.189668,4.86331 -2.042865,-1.66635 3.700766,-4.44271 3.536953,-7.07391 -0.09905,-1.591 -2.678416,-2.38519 -2.652715,-3.97907 z"
       style="fill:#deaa87;stroke:none" />
    <g
       transform="matrix(0.49226652,0.87044452,-0.87044452,0.49226652,214.49957,-56.932013)"
       id="g4031">
      <path
         sodipodi:nodetypes="ccaccccc"
         inkscape:connector-curvature="0"
         id="path4027"
         d="m 90.710277,180.6783 -30.948339,2.9962 c 0,0 -8.140322,-8.26729 -7.958144,-13.48288 0.126992,-3.63565 6.189668,-8.98859 6.189668,-8.98859 l 16.800527,-3.74524 21.221718,0 -7.958144,27.7148 z"
         style="fill:#f8010a;fill-opacity:1;stroke:none" />
      <path
         inkscape:connector-curvature="0"
         id="path4029"
         d="m 82.0625,160.40625 c -8.436971,0.74291 -18.227354,0.30389 -25.125,5.8125 -2.993514,3.16564 -2.003506,7.78023 0.84375,10.59375 1.452773,3.18643 4.962264,4.96318 8.151495,3.24634 C 72.944746,179.37256 79.956748,178.68628 86.96875,178 88.645833,172.14583 90.322917,166.29167 92,160.4375 c -3.312288,-0.0624 -6.624895,-0.0897 -9.9375,-0.0312 z"
         style="opacity:0.32480008;fill:url(#linearGradient4281);fill-opacity:1;stroke:none" />
    </g>
    <g
       id="g4039"
       transform="matrix(0.89374339,-0.44857858,0.44857858,0.89374339,-50.92249,8.7799879)">
      <path
         style="fill:#f8010a;fill-opacity:1;stroke:none"
         d="m 90.710277,180.6783 -30.948339,2.9962 c 0,0 -8.140322,-8.26729 -7.958144,-13.48288 0.126992,-3.63565 6.189668,-8.98859 6.189668,-8.98859 l 16.800527,-3.74524 21.221718,0 -7.958144,27.7148 z"
         id="path4041"
         inkscape:connector-curvature="0"
         sodipodi:nodetypes="ccaccccc" />
      <path
         style="opacity:0.32480008;fill:url(#linearGradient4283);fill-opacity:1;stroke:none"
         d="m 82.0625,160.40625 c -8.436971,0.74291 -18.227354,0.30389 -25.125,5.8125 -2.993514,3.16564 -2.003506,7.78023 0.84375,10.59375 1.452773,3.18643 4.962264,4.96318 8.151495,3.24634 C 72.944746,179.37256 79.956748,178.68628 86.96875,178 88.645833,172.14583 90.322917,166.29167 92,160.4375 c -3.312288,-0.0624 -6.624895,-0.0897 -9.9375,-0.0312 z"
         id="path4043"
         inkscape:connector-curvature="0" />
    </g>
    <g
       id="g4078"
       transform="matrix(0.1861827,0.74562625,-0.74562625,0.1861827,168.73364,167.63126)">
      <path
         style="fill:#ffe680;fill-opacity:1;stroke:none"
         d="m -83.370215,152.70615 8.20648,-4.50033 c 0,0 -6.72127,-5.24329 -6.08867,-8.73593 0.55401,-3.0588 7.35004,-2.20318 7.67703,-5.2945 0.67631,-6.39388 -14.47915,-7.72217 -13.23626,-14.03044 1.19855,-6.08325 13.96741,-2.23719 16.94241,-7.67703 2.35322,-4.30292 0.0811,-10.17608 -2.1178,-14.559881 -1.56663,-3.12331 -7.38367,-3.91823 -7.41231,-7.412306 -0.0312,-3.80655 7.94176,-8.20647 7.94176,-8.20647 l -14.82461,-1.32363 c 0,0 -5.61498,5.09418 -5.55923,8.4712 0.0175,5.736936 15.70434,13.566907 15.08934,16.412957 -1.74239,6.25093 -18.14019,1.69233 -20.38384,8.73594 -2.103745,6.60436 12.96744,11.1354 10.85373,17.73658 -1.16956,3.65253 -10.57551,0.66514 -10.58901,4.50033 -0.0102,2.88509 6.05225,1.26114 7.94175,3.44142 2.74039,6.46575 1.11109,7.25258 5.55923,12.44209 z"
         id="path4080"
         inkscape:connector-curvature="0"
         sodipodi:nodetypes="ccaaaaaaccccaaacc" />
      <path
         sodipodi:nodetypes="ccaaaaaaccccaaacc"
         inkscape:connector-curvature="0"
         id="path4082"
         d="m -85.465049,151.70615 8.20648,-4.50033 c 0,0 -6.72127,-5.24329 -6.08867,-8.73593 0.55401,-3.0588 7.35004,-2.20318 7.67703,-5.2945 0.67631,-6.39388 -14.47915,-7.72217 -13.23626,-14.03044 1.19855,-6.08325 13.96741,-2.23719 16.94241,-7.67703 2.35322,-4.30292 0.0811,-10.17608 -2.1178,-14.559881 -1.56663,-3.12331 -7.38367,-3.91823 -7.41231,-7.412306 -0.0312,-3.80655 7.94176,-8.20647 7.94176,-8.20647 l -14.82461,-1.32363 c 0,0 -5.61498,5.09418 -5.55923,8.4712 0.0175,5.736936 15.70434,13.566907 15.08934,16.412957 -1.74239,6.25093 -18.14019,1.69233 -20.38384,8.73594 -2.103741,6.60436 12.96744,11.1354 10.85373,17.73658 -1.16956,3.65253 -10.57551,0.66514 -10.58901,4.50033 -0.0102,2.88509 6.05225,1.26114 7.94175,3.44142 2.74039,6.46575 1.11109,7.25258 5.55923,12.44209 z"
         style="fill:#febe14;fill-opacity:1;stroke:none" />
      <path
         inkscape:connector-curvature="0"
         id="path4084"
         d="m -87.21875,82.28125 c -3.6542,1.169234 -6.643489,7.358298 -2.40625,9.90625 3.85407,4.6188 11.563968,6.573109 12.71875,13 -3.144399,8.23811 -14.16596,3.53591 -19.75,7.96875 -2.773031,4.79704 4.858748,6.61459 6.75,9.9375 3.548674,2.76586 5.594791,9.52741 0.40625,11.625 -1.764462,1.25737 -5.594958,0.37614 -6.34375,1 4.303103,-0.18819 8.011629,2.60174 8.1875,7 0.270342,3.21167 2.259952,8.82003 6.15625,4.875 1.996687,-2.25513 -3.350574,-3.64523 -3.375,-6.09375 -1.807438,-3.79219 1.627469,-7.82229 5.5625,-7.53125 3.313088,-1.04261 0.281424,-4.09907 -1.868243,-4.55864 -4.284533,-2.28313 -12.373852,-6.64366 -8.756757,-12.56636 3.492927,-6.38504 14.392004,-0.79702 16.75,-8.03125 1.030085,-6.66778 -2.904419,-12.927061 -8.84375,-15.65625 -3.064531,-3.35006 -0.394631,-8.232411 2.6875,-10.5 -2.613366,-0.259867 -5.246539,-0.486297 -7.875,-0.375 z"
         style="fill:#ffd42a;fill-opacity:1;stroke:none" />
    </g>
    <path
       inkscape:connector-curvature="0"
       id="path3987"
       d="m 84.555849,138.98098 -6.800156,-12.68681 -7.468861,-5.42593 6.260482,-7.17664 -3.253966,-6.76068 c 0,0 18.070618,-11.473139 12.186613,-10.722839 -5.884007,0.75031 -13.895196,-5.80241 -13.895196,-5.80241 l 4.549256,-4.9652 17.525635,6.13676 c 0,0 18.610294,8.390331 12.684164,11.936519 -5.92613,3.5462 -14.355934,6.21571 -14.355934,6.21571 l 1.33476,4.2149 -6.84494,8.84574 6.04986,6.80281 z"
       style="fill:#456f00;fill-opacity:1;stroke:none" />
    <path
       style="fill:#73cb2b;fill-opacity:1;stroke:none"
       d="m 60.127577,96.868743 12.686816,-6.800156 5.42593,-7.468861 7.176637,6.260482 6.760686,-3.253966 c 0,0 11.473134,18.070618 10.722834,12.186613 -0.75031,-5.884007 5.80241,-13.895196 5.80241,-13.895196 l 4.9652,4.549256 -6.13676,17.525635 c 0,0 -8.390331,18.61029 -11.936523,12.68416 -3.546193,-5.92613 -6.215703,-14.35593 -6.215703,-14.35593 l -4.2149,1.33476 -8.845742,-6.84494 -6.802813,6.04986 z"
       id="path3985"
       inkscape:connector-curvature="0" />
    <path
       style="fill:#456f00;fill-opacity:1;stroke:none"
       d="m 114.69214,102.84068 -6.80016,-12.686813 -7.46886,-5.42593 6.26048,-7.17664 -3.25396,-6.76068 c 0,0 18.07062,-11.473139 12.18661,-10.722839 -5.88401,0.75031 -13.8952,-5.80241 -13.8952,-5.80241 l 4.54926,-4.9652 17.52564,6.13676 c 0,0 18.61029,8.390331 12.68416,11.936519 -5.92613,3.5462 -14.35593,6.21571 -14.35593,6.21571 l 1.33476,4.2149 -6.84494,8.84574 6.04986,6.80281 z"
       id="path3995"
       inkscape:connector-curvature="0" />
    <path
       sodipodi:nodetypes="ccaccccc"
       inkscape:connector-curvature="0"
       id="path4009"
       d="m 90.710277,180.6783 -30.948339,2.9962 c 0,0 -8.140322,-8.26729 -7.958144,-13.48288 0.126992,-3.63565 6.189668,-8.98859 6.189668,-8.98859 l 16.800527,-3.74524 21.221718,0 -7.958144,27.7148 z"
       style="fill:#f8010a;fill-opacity:1;stroke:none" />
    <path
       inkscape:connector-curvature="0"
       id="path4037"
       d="m 153.53846,30.838638 12.68681,-6.80016 5.42593,-7.46886 7.17664,6.26048 6.76068,-3.25396 c 0,0 11.47314,18.07062 10.72284,12.18661 -0.75031,-5.88401 5.80241,-13.8952 5.80241,-13.8952 l 4.9652,4.54926 -6.13676,17.52564 c 0,0 -8.39033,18.61029 -11.93652,12.68416 -3.5462,-5.92613 -6.21571,-14.35593 -6.21571,-14.35593 l -4.2149,1.33476 -8.84574,-6.84494 -6.80281,6.04986 z"
       style="fill:#4e8a11;fill-opacity:1;stroke:none" />
    <g
       transform="matrix(0.54712571,0.53969988,-0.53969988,0.54712571,208.94457,84.321117)"
       id="g4057">
      <path
         sodipodi:nodetypes="ccaaaaaaccccaaacc"
         inkscape:connector-curvature="0"
         id="path4049"
         d="m -83.370215,152.70615 8.20648,-4.50033 c 0,0 -6.72127,-5.24329 -6.08867,-8.73593 0.55401,-3.0588 7.35004,-2.20318 7.67703,-5.2945 0.67631,-6.39388 -14.47915,-7.72217 -13.23626,-14.03044 1.19855,-6.08325 13.96741,-2.23719 16.94241,-7.67703 2.35322,-4.30292 0.0811,-10.17608 -2.1178,-14.559881 -1.56663,-3.12331 -7.38367,-3.91823 -7.41231,-7.412306 -0.0312,-3.80655 7.94176,-8.20647 7.94176,-8.20647 l -14.82461,-1.32363 c 0,0 -5.61498,5.09418 -5.55923,8.4712 0.0175,5.736936 15.70434,13.566907 15.08934,16.412957 -1.74239,6.25093 -18.14019,1.69233 -20.38384,8.73594 -2.103745,6.60436 12.96744,11.1354 10.85373,17.73658 -1.16956,3.65253 -10.57551,0.66514 -10.58901,4.50033 -0.0102,2.88509 6.05225,1.26114 7.94175,3.44142 2.74039,6.46575 1.11109,7.25258 5.55923,12.44209 z"
         style="fill:#ffe680;fill-opacity:1;stroke:none" />
      <path
         style="fill:#febe14;fill-opacity:1;stroke:none"
         d="m -85.465049,151.70615 8.20648,-4.50033 c 0,0 -6.72127,-5.24329 -6.08867,-8.73593 0.55401,-3.0588 7.35004,-2.20318 7.67703,-5.2945 0.67631,-6.39388 -14.47915,-7.72217 -13.23626,-14.03044 1.19855,-6.08325 13.96741,-2.23719 16.94241,-7.67703 2.35322,-4.30292 0.0811,-10.17608 -2.1178,-14.559881 -1.56663,-3.12331 -7.38367,-3.91823 -7.41231,-7.412306 -0.0312,-3.80655 7.94176,-8.20647 7.94176,-8.20647 l -14.82461,-1.32363 c 0,0 -5.61498,5.09418 -5.55923,8.4712 0.0175,5.736936 15.70434,13.566907 15.08934,16.412957 -1.74239,6.25093 -18.14019,1.69233 -20.38384,8.73594 -2.103741,6.60436 12.96744,11.1354 10.85373,17.73658 -1.16956,3.65253 -10.57551,0.66514 -10.58901,4.50033 -0.0102,2.88509 6.05225,1.26114 7.94175,3.44142 2.74039,6.46575 1.11109,7.25258 5.55923,12.44209 z"
         id="path4047"
         inkscape:connector-curvature="0"
         sodipodi:nodetypes="ccaaaaaaccccaaacc" />
      <path
         style="fill:#ffd42a;fill-opacity:1;stroke:none"
         d="m -87.21875,82.28125 c -3.6542,1.169234 -6.643489,7.358298 -2.40625,9.90625 3.85407,4.6188 11.563968,6.573109 12.71875,13 -3.144399,8.23811 -14.16596,3.53591 -19.75,7.96875 -2.773031,4.79704 4.858748,6.61459 6.75,9.9375 3.548674,2.76586 5.594791,9.52741 0.40625,11.625 -1.764462,1.25737 -5.594958,0.37614 -6.34375,1 4.303103,-0.18819 8.011629,2.60174 8.1875,7 0.270342,3.21167 2.259952,8.82003 6.15625,4.875 1.996687,-2.25513 -3.350574,-3.64523 -3.375,-6.09375 -1.807438,-3.79219 1.627469,-7.82229 5.5625,-7.53125 3.313088,-1.04261 0.281424,-4.09907 -1.868243,-4.55864 -4.284533,-2.28313 -12.373852,-6.64366 -8.756757,-12.56636 3.492927,-6.38504 14.392004,-0.79702 16.75,-8.03125 1.030085,-6.66778 -2.904419,-12.927061 -8.84375,-15.65625 -3.064531,-3.35006 -0.394631,-8.232411 2.6875,-10.5 -2.613366,-0.259867 -5.246539,-0.486297 -7.875,-0.375 z"
         id="path4051"
         inkscape:connector-curvature="0" />
    </g>
    <g
       id="g4070"
       transform="matrix(0.27412378,0.71796842,-0.71796842,0.27412378,225.221,93.785388)">
      <path
         style="fill:#ffe680;fill-opacity:1;stroke:none"
         d="m -83.370215,152.70615 8.20648,-4.50033 c 0,0 -6.72127,-5.24329 -6.08867,-8.73593 0.55401,-3.0588 7.35004,-2.20318 7.67703,-5.2945 0.67631,-6.39388 -14.47915,-7.72217 -13.23626,-14.03044 1.19855,-6.08325 13.96741,-2.23719 16.94241,-7.67703 2.35322,-4.30292 0.0811,-10.17608 -2.1178,-14.559881 -1.56663,-3.12331 -7.38367,-3.91823 -7.41231,-7.412306 -0.0312,-3.80655 7.94176,-8.20647 7.94176,-8.20647 l -14.82461,-1.32363 c 0,0 -5.61498,5.09418 -5.55923,8.4712 0.0175,5.736936 15.70434,13.566907 15.08934,16.412957 -1.74239,6.25093 -18.14019,1.69233 -20.38384,8.73594 -2.103745,6.60436 12.96744,11.1354 10.85373,17.73658 -1.16956,3.65253 -10.57551,0.66514 -10.58901,4.50033 -0.0102,2.88509 6.05225,1.26114 7.94175,3.44142 2.74039,6.46575 1.11109,7.25258 5.55923,12.44209 z"
         id="path4072"
         inkscape:connector-curvature="0"
         sodipodi:nodetypes="ccaaaaaaccccaaacc" />
      <path
         sodipodi:nodetypes="ccaaaaaaccccaaacc"
         inkscape:connector-curvature="0"
         id="path4074"
         d="m -85.465049,151.70615 8.20648,-4.50033 c 0,0 -6.72127,-5.24329 -6.08867,-8.73593 0.55401,-3.0588 7.35004,-2.20318 7.67703,-5.2945 0.67631,-6.39388 -14.47915,-7.72217 -13.23626,-14.03044 1.19855,-6.08325 13.96741,-2.23719 16.94241,-7.67703 2.35322,-4.30292 0.0811,-10.17608 -2.1178,-14.559881 -1.56663,-3.12331 -7.38367,-3.91823 -7.41231,-7.412306 -0.0312,-3.80655 7.94176,-8.20647 7.94176,-8.20647 l -14.82461,-1.32363 c 0,0 -5.61498,5.09418 -5.55923,8.4712 0.0175,5.736936 15.70434,13.566907 15.08934,16.412957 -1.74239,6.25093 -18.14019,1.69233 -20.38384,8.73594 -2.103741,6.60436 12.96744,11.1354 10.85373,17.73658 -1.16956,3.65253 -10.57551,0.66514 -10.58901,4.50033 -0.0102,2.88509 6.05225,1.26114 7.94175,3.44142 2.74039,6.46575 1.11109,7.25258 5.55923,12.44209 z"
         style="fill:#febe14;fill-opacity:1;stroke:none" />
      <path
         inkscape:connector-curvature="0"
         id="path4076"
         d="m -87.21875,82.28125 c -3.6542,1.169234 -6.643489,7.358298 -2.40625,9.90625 3.85407,4.6188 11.563968,6.573109 12.71875,13 -3.144399,8.23811 -14.16596,3.53591 -19.75,7.96875 -2.773031,4.79704 4.858748,6.61459 6.75,9.9375 3.548674,2.76586 5.594791,9.52741 0.40625,11.625 -1.764462,1.25737 -5.594958,0.37614 -6.34375,1 4.303103,-0.18819 8.011629,2.60174 8.1875,7 0.270342,3.21167 2.259952,8.82003 6.15625,4.875 1.996687,-2.25513 -3.350574,-3.64523 -3.375,-6.09375 -1.807438,-3.79219 1.627469,-7.82229 5.5625,-7.53125 3.313088,-1.04261 0.281424,-4.09907 -1.868243,-4.55864 -4.284533,-2.28313 -12.373852,-6.64366 -8.756757,-12.56636 3.492927,-6.38504 14.392004,-0.79702 16.75,-8.03125 1.030085,-6.66778 -2.904419,-12.927061 -8.84375,-15.65625 -3.064531,-3.35006 -0.394631,-8.232411 2.6875,-10.5 -2.613366,-0.259867 -5.246539,-0.486297 -7.875,-0.375 z"
         style="fill:#ffd42a;fill-opacity:1;stroke:none" />
    </g>
    <path
       sodipodi:nodetypes="caaaaaaaasssc"
       inkscape:connector-curvature="0"
       id="path3004"
       d="m 33.030258,297.94885 c 0,0 14.6494,17.40765 25.01003,19.38278 6.60869,1.25987 15.22995,-0.33424 19.38278,-5.62726 24.336662,-31.01842 -1.26179,-79.24709 5.002,-118.17241 6.05835,-37.64857 10.13837,-78.29692 31.262552,-110.044159 20.88374,-31.385877 52.27274,-59.794133 88.41087,-70.529101 29.22325,-8.6808746 63.00243,-3.2242796 91.03613,8.753512 24.2973,10.381366 45.70877,29.563386 60.02408,51.771575 8.00368,12.416589 11.97339,27.753993 12.50502,42.517063 0.35308,9.80475 2.05411,23.54064 -6.25251,28.76154 -93.10977,58.5216 -180.57017,106.93049 -268.232622,164.44098 -10.15073,6.65933 -27.2362,16.63395 -39.70343,10.62927 -8.19837,-3.94864 -18.4449,-21.88379 -18.4449,-21.88379 z"
       style="fill:#f1ca00;fill-opacity:1;stroke:none" />
    <path
       inkscape:connector-curvature="0"
       id="path3039"
       d="m 308.27792,48.294223 c -0.23009,-0.01262 -0.46583,0.0101 -0.71875,0.0625 -4.6845,0.0746 -5.80826,5.35708 -4.59375,8.90625 -0.6657,2.34686 -5.49942,3.97223 -2.03125,6.3125 0.80271,-0.25701 -0.0528,-4.87213 2.875,-4.09375 2.08037,0.34504 5.14126,4.99394 5.34375,0.59375 -0.21161,-2.91145 -6.01512,-0.23256 -5.71875,-4.125 -0.56778,-3.22139 3.86087,-7.1968 6.15625,-3.59375 1.20348,3.32042 2.93028,1.18899 1.8125,-0.96875 -0.45916,-1.43384 -1.51435,-3.00538 -3.125,-3.09375 z m -97.625,2.90625 c -0.20243,0.01407 -0.40043,0.03594 -0.59375,0.0625 -4.36104,0.35997 -5.43167,5.32738 -4.125,8.71875 -0.97798,2.14556 -5.68542,4.90612 -1.65625,6.5625 -1.20513,-2.96721 2.12225,-5.74822 4.375,-3.25 1.4283,2.79655 4.18191,1.46371 3.28125,-1.15625 -1.73362,-1.20316 -6.0545,-0.22552 -5.625,-3.78125 -0.26429,-3.74306 5.01791,-6.67357 6.78125,-2.375 2.52194,3.26434 1.48152,-4.1846 -0.6875,-4.4375 -0.514,-0.34042 -1.1427,-0.38597 -1.75,-0.34375 z m -67.1875,10.625 c -0.20243,0.01407 -0.43168,0.03594 -0.625,0.0625 -4.36104,0.35997 -5.43167,5.32738 -4.125,8.71875 -0.97798,2.14556 -5.68542,4.90612 -1.65625,6.5625 -1.20513,-2.96721 2.12225,-5.74822 4.375,-3.25 1.4283,2.79655 4.18191,1.46371 3.28125,-1.15625 -1.73362,-1.20316 -6.0545,-0.22552 -5.625,-3.78125 -0.26429,-3.74306 5.01791,-6.67357 6.78125,-2.375 2.52194,3.26434 1.48152,-4.1846 -0.6875,-4.4375 -0.514,-0.34042 -1.11145,-0.38597 -1.71875,-0.34375 z m 189.21875,21.21875 c -0.20243,0.01407 -0.40043,0.03594 -0.59375,0.0625 -4.36104,0.35997 -5.43167,5.32738 -4.125,8.71875 -0.97798,2.14556 -5.68542,4.90612 -1.65625,6.5625 -1.20513,-2.96721 2.12225,-5.74822 4.375,-3.25 1.4283,2.79655 4.18191,1.46371 3.28125,-1.15625 -1.73362,-1.20316 -6.0545,-0.22552 -5.625,-3.78125 -0.26429,-3.74306 5.01791,-6.67357 6.78125,-2.375 2.52194,3.26434 1.48152,-4.1846 -0.6875,-4.4375 -0.514,-0.34042 -1.1427,-0.38597 -1.75,-0.34375 z m -91.09375,4.40625 c -0.20243,0.01407 -0.40043,0.06719 -0.59375,0.09375 -4.36104,0.35997 -5.43167,5.32738 -4.125,8.71875 -0.97798,2.14556 -5.68542,4.906117 -1.65625,6.562497 -1.20513,-2.967207 2.12225,-5.748217 4.375,-3.249997 1.4283,2.796547 4.18191,1.463707 3.28125,-1.15625 -1.73362,-1.20316 -6.0545,-0.22552 -5.625,-3.78125 -0.26429,-3.74306 5.01791,-6.67357 6.78125,-2.375 2.52194,3.26434 1.48152,-4.1846 -0.6875,-4.4375 -0.514,-0.34042 -1.1427,-0.41722 -1.75,-0.375 z m 26.125,9.875 c -1.45515,0.02341 -3.01706,0.61099 -4.125,1.40625 -1.53079,1.09878 -2.21509,3.253857 -2.4375,5.124997 -0.12484,1.05022 0.88165,2.06043 0.65625,3.09375 -0.40562,1.85955 -3.50834,2.69515 -3.375,4.59375 0.10333,1.47134 1.66208,3.54224 3.09375,3.1875 1.39056,-0.34456 -0.0744,-3.50845 1.21875,-4.125 1.88508,-0.89877 3.91808,3.31836 5.78125,2.375 1.34355,-0.68027 1.79163,-3.04052 1.09375,-4.375 -0.86562,-1.65522 -4.565,-0.26223 -5.25,-2 -0.63914,-1.62143 0.63031,-4.26293 2.3125,-4.71875 1.88074,-0.50963 3.22696,4.33762 4.84375,3.25 2.02076,-1.35937 0.5348,-5.727467 -1.4375,-7.156247 -0.66267,-0.48006 -1.50191,-0.67029 -2.375,-0.65625 z m -67.15625,15.562497 c -5.82558,-0.005 -6.75344,8.42917 -3.125,11.21875 0.49619,3.19503 6.90948,2.681 3.875,-0.5625 -3.68431,0.0679 -7.13149,-3.52234 -3.90625,-6.6875 2.19626,-2.78505 5.78817,0.14236 6.84375,1.65625 1.0766,-2.33403 -1.06332,-5.82768 -3.6875,-5.625 z m -42.96875,1.09375 c -0.20243,0.0141 -0.40043,0.0359 -0.59375,0.0625 -4.36104,0.35997 -5.43167,5.32738 -4.125,8.71875 -0.97798,2.14556 -5.68542,4.90612 -1.65625,6.5625 -1.20513,-2.96721 2.12225,-5.74822 4.375,-3.25 1.4283,2.79655 4.18191,1.46371 3.28125,-1.15625 -1.73362,-1.20316 -6.0545,-0.22552 -5.625,-3.78125 -0.26429,-3.74306 5.01791,-6.67357 6.78125,-2.375 2.52194,3.26434 1.48152,-4.1846 -0.6875,-4.4375 -0.514,-0.34042 -1.1427,-0.38597 -1.75,-0.34375 z m 160.71875,2.59375 c -1.45515,0.0234 -3.01706,0.64224 -4.125,1.4375 -1.53079,1.09878 -2.21509,3.22261 -2.4375,5.09375 -0.12484,1.05022 0.88165,2.09168 0.65625,3.125 -0.40562,1.85955 -3.50834,2.69515 -3.375,4.59375 0.10333,1.47135 1.66208,3.511 3.09375,3.15625 1.39056,-0.34456 -0.0744,-3.50845 1.21875,-4.125 1.88508,-0.89877 3.91808,3.34961 5.78125,2.40625 1.34355,-0.68027 1.79163,-3.07177 1.09375,-4.40625 -0.86562,-1.65522 -4.56501,-0.26223 -5.25,-2 -0.63914,-1.62143 0.63032,-4.23168 2.3125,-4.6875 1.88074,-0.50963 3.22696,4.33762 4.84375,3.25 2.02076,-1.35937 0.5348,-5.72747 -1.4375,-7.15625 -0.66267,-0.48006 -1.50191,-0.70155 -2.375,-0.6875 z m -124.0625,6.78125 c -2.12996,0.616 -1.954,6.03568 0.125,4.375 0.20853,-1.33985 -0.058,-3.45417 -0.125,-4.375 z m 68.25,10.4375 c -1.45515,0.0234 -3.01706,0.61099 -4.125,1.40625 -1.53079,1.09878 -2.18384,3.25386 -2.40625,5.125 -0.12484,1.05022 0.8504,2.06043 0.625,3.09375 -0.40562,1.85955 -3.50834,2.69515 -3.375,4.59375 0.10333,1.47135 1.66208,3.54225 3.09375,3.1875 1.39056,-0.34456 -0.0744,-3.50845 1.21875,-4.125 1.88508,-0.89877 3.91808,3.31836 5.78125,2.375 1.34355,-0.68027 1.79163,-3.04052 1.09375,-4.375 -0.86562,-1.65522 -4.56501,-0.26223 -5.25,-2 -0.63914,-1.62143 0.63031,-4.26293 2.3125,-4.71875 1.88074,-0.50962 3.25821,4.33762 4.875,3.25 2.02077,-1.35937 0.50355,-5.72747 -1.46875,-7.15625 -0.66267,-0.48006 -1.50191,-0.6703 -2.375,-0.65625 z m -147.34375,5.84375 c -0.20243,0.0141 -0.40043,0.0359 -0.59375,0.0625 -4.36104,0.35997 -5.43167,5.32738 -4.125,8.71875 -0.97798,2.14556 -5.68542,4.90612 -1.65625,6.5625 -1.20513,-2.96721 2.12225,-5.74822 4.375,-3.25 1.4283,2.79655 4.18191,1.46371 3.28125,-1.15625 -1.73362,-1.20316 -6.0545,-0.22552 -5.625,-3.78125 -0.26429,-3.74306 5.01791,-6.67357 6.78125,-2.375 2.52194,3.26434 1.48152,-4.1846 -0.6875,-4.4375 -0.514,-0.34042 -1.1427,-0.38597 -1.75,-0.34375 z m 226.375,0 c -0.20243,0.0141 -0.40043,0.0359 -0.59375,0.0625 -4.36104,0.35997 -5.43167,5.32738 -4.125,8.71875 -0.97798,2.14556 -5.68542,4.90612 -1.65625,6.5625 -1.20513,-2.96721 2.12225,-5.74822 4.375,-3.25 1.4283,2.79655 4.18191,1.46371 3.28125,-1.15625 -1.73362,-1.20316 -6.0545,-0.22552 -5.625,-3.78125 -0.26429,-3.74306 5.01791,-6.67357 6.78125,-2.375 2.52194,3.26434 1.48152,-4.1846 -0.6875,-4.4375 -0.514,-0.34042 -1.1427,-0.38597 -1.75,-0.34375 z m -138.90625,10.375 c -0.2095,-0.006 -0.41909,0.009 -0.625,0.0312 -4.50614,0.088 -5.99894,5.18744 -4.53125,8.75 -0.51595,2.46014 -5.51452,3.91218 -2.21875,6.40625 1.3675,0.41385 -0.28793,-4.22399 2.34375,-4.03125 2.48332,-0.39803 5.87562,5.41673 5.96875,0.375 -0.74505,-2.42772 -6.88828,-0.37702 -5.65625,-4.8125 0.008,-3.64115 5.07591,-5.95976 6.71875,-1.9375 2.39584,3.30549 1.57244,-3.71402 -0.28125,-4.15625 -0.46879,-0.43848 -1.09024,-0.60779 -1.71875,-0.625 z m 90.25,5.53125 c -0.20243,0.0141 -0.40043,0.0359 -0.59375,0.0625 -4.36104,0.35997 -5.43167,5.32738 -4.125,8.71875 -0.97798,2.14556 -5.68542,4.90612 -1.65625,6.5625 -1.20513,-2.96721 2.12225,-5.74822 4.375,-3.25 1.4283,2.79655 4.18191,1.46371 3.28125,-1.15625 -1.73362,-1.20316 -6.0545,-0.22552 -5.625,-3.78125 -0.26429,-3.74306 5.01791,-6.67357 6.78125,-2.375 2.52194,3.26434 1.48152,-4.1846 -0.6875,-4.4375 -0.514,-0.34042 -1.1427,-0.38597 -1.75,-0.34375 z m -188.15625,23.6875 c -4.28134,2.12509 1.16845,4.33524 1.6875,6.84375 -1.56634,3.53915 0.15915,8.5044 4.59375,8.5625 0.97716,0.11825 1.97766,-0.13487 2.59375,-0.9375 1.58399,-0.78806 2.2382,-6.99207 -0.0312,-3.84375 -1.40268,3.53598 -6.03847,2.27437 -6.5625,-1.125 -1.47724,-3.62316 2.61865,-4.7652 5.25,-4.75 1.31022,-2.60239 -1.58431,-4.47574 -3.125,-1.4375 -2.34107,2.49 -5.56042,-0.3275 -4.40625,-3.3125 z m 105.5625,2.40625 c -1.45515,0.0234 -3.04831,0.61099 -4.15625,1.40625 -1.53078,1.09877 -2.18383,3.25387 -2.40625,5.125 -0.12484,1.05022 0.88165,2.06043 0.65625,3.09375 -0.40562,1.85955 -3.53958,2.69515 -3.40625,4.59375 0.10333,1.47134 1.66208,3.51099 3.09375,3.15625 1.39056,-0.34456 -0.0744,-3.50845 1.21875,-4.125 1.88508,-0.89877 3.94933,3.34961 5.8125,2.40625 1.34355,-0.68027 1.76038,-3.04051 1.0625,-4.375 -0.86561,-1.65522 -4.53375,-0.26223 -5.21875,-2 -0.63914,-1.62143 0.59907,-4.26293 2.28125,-4.71875 1.88074,-0.50963 3.25821,4.33762 4.875,3.25 2.02076,-1.35937 0.50355,-5.72747 -1.46875,-7.15625 -0.66267,-0.48006 -1.47066,-0.6703 -2.34375,-0.65625 z m -64.25,1.9375 c -0.87309,-0.014 -1.71233,0.20744 -2.375,0.6875 -1.9723,1.42879 -3.45827,5.79688 -1.4375,7.15625 1.61679,1.08761 2.96301,-3.75963 4.84375,-3.25 1.68218,0.45582 2.95164,3.06607 2.3125,4.6875 -0.685,1.73777 -4.38439,0.34478 -5.25,2 -0.69788,1.33449 -0.2498,3.72598 1.09375,4.40625 1.86317,0.94336 3.89617,-3.30503 5.78125,-2.40625 1.29315,0.61655 -0.1718,3.78043 1.21875,4.125 1.43167,0.35475 2.99041,-1.6849 3.09375,-3.15625 0.13334,-1.8986 -2.96937,-2.7342 -3.375,-4.59375 -0.2254,-1.03332 0.78109,-2.07478 0.65625,-3.125 -0.22242,-1.87114 -0.90671,-3.99497 -2.4375,-5.09375 -1.10794,-0.79526 -2.66985,-1.41409 -4.125,-1.4375 z m 124.625,3.34375 c -1.45515,0.0234 -3.01706,0.61099 -4.125,1.40625 -1.53079,1.09878 -2.21508,3.25386 -2.4375,5.125 -0.12484,1.05022 0.88165,2.06043 0.65625,3.09375 -0.40562,1.85955 -3.50834,2.69515 -3.375,4.59375 0.10333,1.47134 1.66208,3.511 3.09375,3.15625 1.39056,-0.34456 -0.0744,-3.50845 1.21875,-4.125 1.88508,-0.89877 3.91808,3.34961 5.78125,2.40625 1.34355,-0.68027 1.79163,-3.04052 1.09375,-4.375 -0.86562,-1.65522 -4.565,-0.26223 -5.25,-2 -0.63914,-1.62143 0.63031,-4.26293 2.3125,-4.71875 1.88074,-0.50962 3.22696,4.33762 4.84375,3.25 2.02077,-1.35937 0.5348,-5.72747 -1.4375,-7.15625 -0.66267,-0.48006 -1.50191,-0.6703 -2.375,-0.65625 z m -60,28.75 c -0.20243,0.0141 -0.40043,0.0359 -0.59375,0.0625 -4.36104,0.35997 -5.43167,5.32738 -4.125,8.71875 -0.97798,2.14556 -5.68542,4.90612 -1.65625,6.5625 -1.20513,-2.96721 2.12225,-5.74822 4.375,-3.25 1.4283,2.79655 4.18191,1.46371 3.28125,-1.15625 -1.73362,-1.20316 -6.0545,-0.22552 -5.625,-3.78125 -0.26429,-3.74306 5.01791,-6.67357 6.78125,-2.375 2.52194,3.26434 1.48152,-4.1846 -0.6875,-4.4375 -0.514,-0.34042 -1.1427,-0.38597 -1.75,-0.34375 z m -109.65625,2.65625 c -0.20243,0.0141 -0.40043,0.0359 -0.59375,0.0625 -4.361043,0.35997 -5.431673,5.32738 -4.125003,8.71875 -0.97798,2.14556 -5.68542,4.90612 -1.65625,6.5625 -1.20513,-2.96721 2.12225,-5.74822 4.375,-3.25 1.428303,2.79655 4.181913,1.46371 3.281253,-1.15625 -1.73362,-1.20316 -6.054503,-0.22552 -5.625003,-3.78125 -0.26429,-3.74306 5.017913,-6.67357 6.781253,-2.375 2.52194,3.26434 1.48152,-4.1846 -0.6875,-4.4375 -0.514,-0.34042 -1.1427,-0.38597 -1.75,-0.34375 z m 56.46875,20.125 c -1.45515,0.0234 -3.01706,0.61099 -4.125,1.40625 -1.53079,1.09878 -2.21508,3.25386 -2.4375,5.125 -0.12484,1.05022 0.88165,2.06043 0.65625,3.09375 -0.40562,1.85954 -3.50834,2.69516 -3.375,4.59375 0.10333,1.47134 1.66208,3.54224 3.09375,3.1875 1.39056,-0.34456 -0.0744,-3.50845 1.21875,-4.125 1.88508,-0.89877 3.91808,3.31837 5.78125,2.375 1.34354,-0.68027 1.79163,-3.04052 1.09375,-4.375 -0.86561,-1.65521 -4.56501,-0.26224 -5.25,-2 -0.63913,-1.62143 0.63032,-4.23168 2.3125,-4.6875 1.88074,-0.50963 3.22696,4.30637 4.84375,3.21875 2.02077,-1.35937 0.5348,-5.72747 -1.4375,-7.15625 -0.66267,-0.48006 -1.50191,-0.6703 -2.375,-0.65625 z m -49.375,23.21875 c -0.20243,0.0141 -0.40043,0.0359 -0.59375,0.0625 -4.36104,0.35997 -5.43167,5.32738 -4.125,8.71875 -0.97798,2.14556 -5.685423,4.90612 -1.65625,6.5625 -1.20513,-2.96721 2.12225,-5.74822 4.375,-3.25 1.4283,2.79655 4.18191,1.46371 3.28125,-1.15625 -1.73362,-1.20316 -6.0545,-0.22552 -5.625,-3.78125 -0.26429,-3.74306 5.01791,-6.67357 6.78125,-2.375 2.52194,3.26434 1.48152,-4.1846 -0.6875,-4.4375 -0.514,-0.34042 -1.1427,-0.38597 -1.75,-0.34375 z"
       style="fill:url(#linearGradient4285);fill-opacity:1;stroke:none" />
    <path
       sodipodi:nodetypes="aaaaaaaa"
       inkscape:connector-curvature="0"
       id="path3949"
       d="m 41.891809,248.34264 c -1.427626,1.22114 -0.77243,4.09365 0.312625,5.62726 0.782444,1.1059 2.396796,1.56312 3.751505,1.56312 1.354709,0 2.960344,-0.46344 3.751505,-1.56312 0.854191,-1.18729 0.766435,-2.98631 0.312626,-4.37676 -0.550603,-1.68703 -1.748624,-4.60474 -3.43888,-4.06413 -1.19519,0.38227 0.695159,3.00385 -0.312625,3.7515 -1.198287,0.88898 -3.242922,-1.90771 -4.376756,-0.93787 z"
       style="fill:#a05e00;fill-opacity:1;stroke:none" />
    <path
       style="fill:#a05e00;fill-opacity:1;stroke:none"
       d="m 53.45895,213.32859 c -1.427626,1.22114 -0.77243,4.09365 0.312625,5.62726 0.782444,1.1059 2.429921,1.86087 3.751505,1.56312 1.367699,-0.30814 1.65524,-2.33651 2.813629,-3.12625 1.471319,-1.00308 4.657308,-0.12872 5.002007,-1.87575 0.385386,-1.95325 -2.385916,-4.04864 -4.376756,-4.06413 -1.401938,-0.0109 -2.396956,0.57628 -3.126254,2.81362 -0.462408,1.41858 -3.242922,-1.90771 -4.376756,-0.93787 z"
       id="path3951"
       inkscape:connector-curvature="0"
       sodipodi:nodetypes="aaaaaasa" />
    <path
       sodipodi:nodetypes="aaaaaasa"
       inkscape:connector-curvature="0"
       id="path3953"
       d="m 55.959953,273.97792 c -1.427626,1.22114 -0.77243,4.09365 0.312625,5.62726 0.782444,1.1059 2.429921,1.86087 3.751505,1.56312 1.367699,-0.30814 1.65524,-2.33651 2.813629,-3.12625 1.471319,-1.00308 4.657308,-0.12872 5.002007,-1.87575 0.385386,-1.95325 -2.385916,-4.04864 -4.376756,-4.06413 -1.401938,-0.0109 -2.396956,0.57628 -3.126254,2.81362 -0.462408,1.41858 -3.242922,-1.90771 -4.376756,-0.93787 z"
       style="fill:#a05e00;fill-opacity:1;stroke:none" />
    <path
       style="fill:#a05e00;fill-opacity:1;stroke:none"
       d="m 50.02007,305.24046 c -1.427626,1.22114 -0.77243,4.09365 0.312625,5.62726 0.782444,1.1059 2.429921,1.86087 3.751505,1.56312 1.367699,-0.30814 1.65524,-2.33651 2.813629,-3.12625 1.471319,-1.00308 4.657308,-0.12872 5.002007,-1.87575 0.385386,-1.95325 -2.385916,-4.04864 -4.376756,-4.06413 -1.401938,-0.0109 -2.396956,0.57628 -3.126254,2.81362 -0.462408,1.41858 -3.242922,-1.90771 -4.376756,-0.93787 z"
       id="path3955"
       inkscape:connector-curvature="0"
       sodipodi:nodetypes="aaaaaasa" />
    <path
       sodipodi:nodetypes="aaaaaasa"
       inkscape:connector-curvature="0"
       id="path3957"
       d="m 66.589218,181.75342 c -1.427626,1.22114 -0.77243,4.09365 0.312625,5.62726 0.782444,1.1059 2.429921,1.86087 3.751505,1.56312 1.367699,-0.30814 1.65524,-2.33651 2.813629,-3.12625 1.471319,-1.00308 4.657308,-0.12872 5.002007,-1.87575 0.385386,-1.95325 -2.385916,-4.04864 -4.376756,-4.06413 -1.401938,-0.0109 -2.396956,0.57628 -3.126254,2.81362 -0.462408,1.41858 -3.242922,-1.90771 -4.376756,-0.93787 z"
       style="fill:#a05e00;fill-opacity:1;stroke:none" />
    <path
       sodipodi:nodetypes="ssssccssssss"
       inkscape:connector-curvature="0"
       id="path3006"
       d="m 235.46875,11.71875 c -9.70772,0.183979 -19.27398,1.537227 -28.40625,4.25 C 170.92437,26.703718 139.53999,55.114123 118.65625,86.5 97.53207,118.24724 93.43335,158.88268 87.375,196.53125 c -6.26379,38.92532 19.33666,87.16908 -5,118.1875 -4.926833,4.86741 -10.445433,6.67866 -16.617968,10.30233 C 74.18298,323.60454 90.754606,315.74197 96.125,312.21875 183.78745,254.70826 271.26523,206.2716 364.375,147.75 c 8.30662,-5.2209 6.60308,-18.94525 6.25,-28.75 -0.53163,-14.76307 -4.49632,-30.114661 -12.5,-42.53125 -14.31531,-22.208189 -35.73395,-41.368634 -60.03125,-51.75 -19.27317,-8.234732 -41.26801,-13.404754 -62.625,-13 z"
       style="fill:url(#linearGradient4287);fill-opacity:1;stroke:none" />
    <path
       inkscape:connector-curvature="0"
       id="path3959"
       d="m 63.28125,274.125 c -1.07979,2.07645 -3.771681,4.73961 -5.90625,2.03125 -1.086831,1.24924 2.112213,4.78967 3.09375,1.75 0.846545,-2.1282 3.574486,-2.7866 5.1875,-2.53125 -0.612549,-0.62988 -1.465294,-1.33416 -2.375,-1.25 z"
       style="fill:#d38d5f;fill-opacity:1;stroke:none" />
    <path
       inkscape:connector-curvature="0"
       id="path3965"
       d="m 48.0625,250.1875 c -1.075596,1.9385 -4.304756,0.74022 -4.96875,1.03125 0.38185,3.49181 6.804222,3.21404 4.96875,-1.03125 z m -1.96875,3.4375 c -0.04293,0.0577 0.103643,0.0325 0,0 z"
       style="fill:#d38d5f;fill-opacity:1;stroke:none" />
    <path
       sodipodi:nodetypes="aaaaaaa"
       inkscape:connector-curvature="0"
       id="path3973"
       d="m 75.602372,242.34465 c -1.905827,-0.24499 -4.653641,1.18479 -4.863311,3.09483 -0.204678,1.86455 4.191328,2.11537 3.979072,3.97908 -0.157325,1.38138 -3.701214,0.83001 -3.536953,2.21059 0.275303,2.31385 4.427739,2.96683 6.631787,2.2106 2.010401,-0.68978 3.707205,-3.18682 3.536953,-5.30543 -0.225531,-2.80651 -2.954967,-5.83069 -5.747548,-6.18967 z"
       style="fill:#deaa87;fill-opacity:1;stroke:none" />
    <path
       sodipodi:nodetypes="ccccaacc"
       inkscape:connector-curvature="0"
       id="path3979"
       d="m 13.130268,165.80952 15.631272,0 11.879767,3.2505 4.376756,5.50301 c 0,0 3.016784,-0.15611 3.751505,-1.2505 1.746411,-2.60134 1.461273,-7.04139 -0.625251,-9.37876 -3.103518,-3.47663 -13.755519,-2.501 -13.755519,-2.501 z"
       style="fill:#4c6e00;fill-opacity:1;stroke:none" />
    <path
       inkscape:connector-curvature="0"
       id="path3983"
       d="m 35.369531,152.15235 9.72662,-10.61086 2.652715,-8.84238 8.842383,3.53695 5.305429,-5.30543 c 0,0 16.800527,13.26357 14.147813,7.95814 -2.652715,-5.30543 0.884238,-15.03205 0.884238,-15.03205 l 6.189668,2.65272 0,18.569 c 0,0 -1.768477,20.33748 -7.073906,15.91629 -5.30543,-4.42119 -10.610859,-11.4951 -10.610859,-11.4951 l -3.536954,2.65272 -10.610859,-3.53696 -4.421191,7.95815 z"
       style="fill:#73cb2b;fill-opacity:1;stroke:none" />
    <path
       inkscape:connector-curvature="0"
       id="path3999"
       d="m 62.03125,136.28125 c -2.24342,1.68598 -4.886547,5.77865 -8.03125,2.875 -1.799846,-1.62511 -5.557761,-1.75716 -4.65625,1.53125 -0.408682,4.43814 -4.526909,7.12971 -7.40625,10.03125 1.513469,1.34099 3.394257,1.86888 3.4375,-0.65625 1.836744,-4.57148 8.255956,-6.73234 11.84375,-3.03125 4.802926,0.14142 11.519692,-2.39722 14.158505,3.31508 1.756132,1.49154 3.731677,5.82528 5.528995,5.34117 1.600483,-4.07176 2.569752,-10.18617 2.1875,-13.4375 -4.461542,4.30024 -10.560619,-1.07561 -13.96875,-4.40625 -0.942753,-0.55418 -1.859177,-1.79148 -3.09375,-1.5625 z"
       style="opacity:0.36400003;fill:#d5ffd5;fill-opacity:1;stroke:none" />
    <path
       inkscape:connector-curvature="0"
       id="path4011"
       d="m 82.0625,160.40625 c -8.436971,0.74291 -18.227354,0.30389 -25.125,5.8125 -2.993514,3.16564 -2.003506,7.78023 0.84375,10.59375 1.452773,3.18643 4.962264,4.96318 8.151495,3.24634 C 72.944746,179.37256 79.956748,178.68628 86.96875,178 88.645833,172.14583 90.322917,166.29167 92,160.4375 c -3.312288,-0.0624 -6.624895,-0.0897 -9.9375,-0.0312 z"
       style="opacity:0.32480008;fill:url(#linearGradient4289);fill-opacity:1;stroke:none" />
  </g>
</svg>
